<svg t="1590731221542" class="icon" 
viewBox="0 0 1024 1024" version="1.1"
 xmlns="http://www.w3.org/2000/svg" p-id="5594"  width="350" height="350"><path d="M51.79392 971.91936a460.06272 50.19648 0 1 0 920.12544 0 460.06272 50.19648 0 1 0-920.12544 0Z" fill="#B7CED2" p-id="5595"></path><path d="M674.79552 836.64896V299.15136l-17.7152-82.51392H614.6048l-115.87584-14.27456H157.20448l-34.69312 46.592v625.84832l7.3728 46.87872 44.19584 21.7088h408.51456l42.25024-5.46816 40.59136-22.28224z" fill="#A2E7F6" p-id="5596"></path><path d="M283.32032 299.15136c-4.52608 0-8.192 3.6864-8.192 8.23296v15.68768c0 4.52608 3.6864 8.192 8.192 8.192h207.19616a8.192 8.192 0 0 0 8.192-8.192v-15.6672a8.21248 8.21248 0 0 0-8.192-8.23296H283.32032z m78.92992 536.96512h49.3568a16.44544 16.44544 0 0 0 16.44544-16.44544v-32.91136a16.44544 16.44544 0 0 0-16.44544-16.44544h-49.3568a16.44544 16.44544 0 0 0-16.44544 16.44544v32.91136c0 9.09312 7.35232 16.44544 16.44544 16.44544zM266.67008 540.5696v-12.84096h18.55488v-74.9568l-20.64384 7.08608-1.00352-13.35296 28.79488-10.0352h6.84032v91.27936h14.9504v12.84096h-47.49312v-0.02048z m84.45952-57.56928c-3.072-3.9936-4.64896-9.5232-4.64896-15.79008 0-17.63328 13.47584-30.76096 33.11616-30.76096 19.39456 0 33.19808 11.96032 33.19808 31.68256 0 14.68416-6.9632 25.3952-22.99904 39.40352a232.448 232.448 0 0 0-20.43904 20.19328h45.03552v12.84096h-68.608v-6.9632a620.48256 620.48256 0 0 1 35.67616-36.47488c12.0832-11.07968 17.03936-19.31264 17.03936-28.8768 0-11.3664-7.4752-18.6368-19.16928-18.6368-11.50976 0-18.55488 7.39328-18.55488 16.60928 0 3.9936 1.24928 7.80288 3.76832 11.71456l-13.4144 5.05856z m106.9056 31.55968c5.5296 9.728 12.43136 15.07328 21.68832 15.07328 11.91936 0 20.11136-7.80288 20.11136-19.21024 0-11.20256-6.51264-17.16224-17.08032-17.16224h-7.31136v-12.71808h7.168c8.92928 0 14.56128-4.83328 14.56128-15.23712 0-9.64608-6.88128-15.68768-16.95744-15.68768-8.64256 0-15.48288 5.16096-20.76672 16.03584l-11.44832-7.08608c6.67648-14.15168 17.7152-22.15936 32.19456-22.15936 18.80064 0 31.232 10.79296 31.232 27.87328 0 10.56768-4.95616 17.75616-13.63968 22.6304 10.15808 3.9936 16.40448 11.71456 16.40448 23.67488 0 19.68128-14.19264 32.1536-34.83648 32.1536-15.36 0-25.92768-7.43424-32.8704-19.5584l11.55072-8.62208z m-205.59872 98.79552a27.56608 27.56608 0 0 1-27.32032-27.72992c0-4.68992 3.76832-8.51968 8.3968-8.51968 4.608 0 8.35584 3.85024 8.35584 8.51968a10.6496 10.6496 0 0 0 10.56768 10.71104h265.3184a10.6496 10.6496 0 0 0 10.56768-10.71104c0-4.68992 3.76832-8.51968 8.35584-8.51968 4.64896 0 8.43776 3.85024 8.43776 8.51968 0 15.27808-12.288 27.72992-27.36128 27.72992H252.43648z m223.17056-73.99424c-12.288 0-21.6064-4.99712-28.40576-15.23712l6.12352-4.56704c6.08256 9.07264 13.5168 13.5168 22.6304 13.5168 13.80352 0 23.51104-9.3184 23.51104-22.6304 0-12.88192-7.68-20.56192-20.48-20.56192h-3.95264v-5.87776h3.76832c11.24352 0 17.92-6.9632 17.92-18.67776 0-11.44832-8.11008-19.12832-20.2752-19.12832-9.03168 0-16.4864 4.9152-22.07744 14.6432l-5.67296-3.4816c6.28736-11.44832 15.79008-17.48992 27.72992-17.48992 17.16224 0 27.83232 9.35936 27.83232 24.43264 0 8.84736-3.80928 15.07328-11.8784 19.64032l-6.36928 3.56352 6.79936 2.64192c9.44128 3.72736 14.19264 10.60864 14.19264 20.48 0 17.48992-12.32896 28.73344-31.39584 28.73344m-130.21184-2.23232v-2.19136a635.6992 635.6992 0 0 1 34.57024-35.28704c12.88192-11.79648 18.16576-20.8896 18.16576-31.39584 0-13.2096-9.03168-22.03648-22.528-22.03648-12.71808 0-21.95456 8.3968-21.95456 20.00896 0 3.39968 0.7168 6.67648 2.23232 9.87136l-7.20896 2.72384a24.3712 24.3712 0 0 1-2.60096-11.59168c0-16.0768 12.24704-27.32032 29.71648-27.32032 18.16576 0 29.83936 11.07968 29.83936 28.24192 0 12.92288-5.91872 22.91712-21.79072 36.80256-5.03808 4.28032-13.12768 11.91936-20.76672 20.52096l-5.12 5.71392h49.23392v5.95968h-61.78816z m-79.07328 0v-5.95968h18.55488v-83.18976l-20.992 7.20896-0.512-6.28736 25.84576-8.99072h2.84672v91.27936h14.99136v5.95968h-40.73472z m270.35648-134.9632a8.45824 8.45824 0 0 1-8.35584-8.51968 10.69056 10.69056 0 0 0-10.56768-10.752H252.43648a10.69056 10.69056 0 0 0-10.56768 10.752 8.45824 8.45824 0 0 1-8.35584 8.51968 8.4992 8.4992 0 0 1-8.43776-8.51968 27.648 27.648 0 0 1 27.36128-27.7504h265.3184c15.07328 0 27.32032 12.47232 27.32032 27.7504a8.43776 8.43776 0 0 1-8.31488 8.51968h-0.08192zM733.24544 936.0384c-5.40672 0-6.59456 0.67584-10.71104-3.35872l-124.0064-120.99584c-8.23296-8.00768-15.23712-24.8832-6.59456-33.56672 9.3184-9.40032 24.08448-0.43008 32.31744 7.59808l103.79264 101.31456 212.64384-207.48288c8.27392-8.04864 17.87904-10.91584 26.15296-2.88768 8.192 8.04864 6.47168 21.79072-1.76128 29.83936L746.3936 922.03008c-4.15744 3.9936-13.0048 14.72512-18.35008 14.72512l5.20192-0.7168z" fill="#107792" p-id="5597"></path><path d="M644.28032 892.84608c-4.68992 21.48352-27.19744 38.23616-49.80736 38.23616H179.32288c-26.112 0-56.79104-26.0096-56.79104-52.40832v-174.20288H650.4448l1.96608 61.56288 22.40512 24.08448V428.032h-24.3712v243.56864H122.51136v-404.48c0-26.39872 30.72-52.8384 56.832-52.8384h415.15008c26.112 0 55.9104 26.43968 55.9104 52.8384v64.16384h24.35072v-64.16384c0-44.52352-36.0448-80.7936-80.32256-80.7936H179.32288c-44.27776 0-80.2816 36.27008-80.2816 80.7936v611.55328c0 44.56448 36.00384 80.7936 80.2816 80.7936h415.15008c30.96576 0 57.58976-17.92 70.9632-43.84768l-21.15584-22.77376z" fill="#107792" p-id="5598"></path></svg>