<svg t="1591780579653" class="icon" viewBox="0 0 1024 1024" version="1.1" xmlns="http://www.w3.org/2000/svg" p-id="1364" width="200" height="200"><path d="M544.256 374.784m2.56 0l54.784 0q2.56 0 2.56 2.56l0 54.784q0 2.56-2.56 2.56l-54.784 0q-2.56 0-2.56-2.56l0-54.784q0-2.56 2.56-2.56Z" fill="#27A3FF" p-id="1365"></path><path d="M342.528 326.656l-137.216 45.056v323.584l137.216 45.056V326.656zM772.608 245.76H504.32a46.592 46.592 0 0 0-46.08 46.592v439.296a46.592 46.592 0 0 0 46.08 46.592h268.288a46.08 46.08 0 0 0 46.08-46.592V292.352a46.08 46.08 0 0 0-46.08-46.592zM512 376.832a36.352 36.352 0 0 1 36.352-36.352h55.808a36.352 36.352 0 0 1 36.352 36.352v55.808a36.352 36.352 0 0 1-36.352 36.352h-57.856a36.352 36.352 0 0 1-34.304-36.352z m214.528 259.584H512a17.408 17.408 0 1 1 0-34.304h214.528a17.408 17.408 0 0 1 0 34.304z m0-86.016H512a17.408 17.408 0 1 1 0-34.304h214.528a17.408 17.408 0 0 1 0 34.304z" fill="#27A3FF" p-id="1366"></path><path d="M921.6 0H102.4a102.4 102.4 0 0 0-102.4 102.4v819.2a102.4 102.4 0 0 0 102.4 102.4h819.2a102.4 102.4 0 0 0 102.4-102.4V102.4a102.4 102.4 0 0 0-102.4-102.4zM376.832 787.968l-204.8-67.584v-373.76l204.8-67.584z m476.16-56.32a80.384 80.384 0 0 1-80.384 80.896H504.32a80.896 80.896 0 0 1-80.384-80.896V292.352a80.896 80.896 0 0 1 80.384-80.896h268.288a80.384 80.384 0 0 1 80.384 80.896z" fill="#27A3FF" p-id="1367"></path></svg>