<svg t="1590731667132" class="icon" viewBox="0 0 1433 1024" version="1.1" xmlns="http://www.w3.org/2000/svg" p-id="6740" width="400" height="400"><path d="M1299.2512 19.2512H134.3488a44.7488 44.7488 0 0 0-44.7488 44.7488v896c0 24.7808 20.0704 44.8512 44.8512 44.8512h1164.6976a44.7488 44.7488 0 0 0 44.8512-44.8512V64a44.7488 44.7488 0 0 0-44.8512-44.8512z m-113.152 152.3712L744.3456 515.3792a30.1056 30.1056 0 0 1-37.0688 0L265.4208 171.6224a10.0352 10.0352 0 0 1 6.144-18.0224h908.288a10.0352 10.0352 0 0 1 6.144 18.0224z" p-id="6741"></path></svg>